<mxfile host="Electron" agent="Mozilla/5.0 (Macintosh; Intel Mac OS X 10_15_7) AppleWebKit/537.36 (KHTML, like Gecko) draw.io/27.0.9 Chrome/134.0.6998.205 Electron/35.4.0 Safari/537.36" version="27.0.9">
  <diagram name="페이지-1" id="2OtFXK_j1tlPG90HXtPZ">
    <mxGraphModel dx="2524" dy="1148" grid="1" gridSize="10" guides="1" tooltips="1" connect="1" arrows="1" fold="1" page="1" pageScale="1" pageWidth="827" pageHeight="1169" math="1" shadow="0">
      <root>
        <mxCell id="0" />
        <mxCell id="1" parent="0" />
        <mxCell id="CFoMmbY4XtNixEHZfKA1-35" value="&lt;font style=&quot;font-size: 30px;&quot;&gt;Replay Buffer&lt;/font&gt;" style="shape=cylinder3;whiteSpace=wrap;html=1;boundedLbl=1;backgroundOutline=1;size=15;fillColor=#fff2cc;strokeColor=#d6b656;movable=1;resizable=1;rotatable=1;deletable=1;editable=1;locked=0;connectable=1;container=0;" parent="1" vertex="1">
          <mxGeometry x="-600" y="790" width="170" height="110" as="geometry" />
        </mxCell>
        <mxCell id="CFoMmbY4XtNixEHZfKA1-39" value="" style="endArrow=blockThin;html=1;rounded=0;exitX=0;exitY=0.5;exitDx=0;exitDy=0;entryX=0;entryY=0.5;entryDx=0;entryDy=0;entryPerimeter=0;endFill=1;movable=1;resizable=1;rotatable=1;deletable=1;editable=1;locked=0;connectable=1;" parent="1" source="CFoMmbY4XtNixEHZfKA1-31" target="CFoMmbY4XtNixEHZfKA1-35" edge="1">
          <mxGeometry width="50" height="50" relative="1" as="geometry">
            <mxPoint x="-828" y="620" as="sourcePoint" />
            <mxPoint x="-768" y="860" as="targetPoint" />
            <Array as="points">
              <mxPoint x="-778" y="495" />
              <mxPoint x="-778" y="845" />
            </Array>
          </mxGeometry>
        </mxCell>
        <mxCell id="CFoMmbY4XtNixEHZfKA1-187" value="&lt;font&gt;observation&lt;/font&gt;" style="rounded=1;whiteSpace=wrap;html=1;align=left;textDirection=vertical-rl;fontSize=30;fillColor=#ffe6cc;strokeColor=#d79b00;container=0;" parent="1" vertex="1">
          <mxGeometry x="40" y="210" width="30" height="200" as="geometry" />
        </mxCell>
        <mxCell id="CFoMmbY4XtNixEHZfKA1-190" value="&lt;span&gt;action&lt;/span&gt;" style="rounded=1;whiteSpace=wrap;html=1;align=left;textDirection=vertical-rl;fontSize=30;fillColor=#dae8fc;strokeColor=#6c8ebf;container=0;" parent="1" vertex="1">
          <mxGeometry x="280" y="260" width="30" height="100" as="geometry" />
        </mxCell>
        <mxCell id="CFoMmbY4XtNixEHZfKA1-191" value="&lt;font&gt;obs&lt;/font&gt;" style="rounded=1;whiteSpace=wrap;html=1;align=left;textDirection=vertical-rl;fontSize=30;fillColor=#ffe6cc;strokeColor=#d79b00;container=0;" parent="1" vertex="1">
          <mxGeometry x="40" y="575" width="30" height="95" as="geometry" />
        </mxCell>
        <mxCell id="CFoMmbY4XtNixEHZfKA1-192" value="&lt;span&gt;value&lt;/span&gt;" style="rounded=1;whiteSpace=wrap;html=1;align=left;textDirection=vertical-rl;fontSize=30;container=0;" parent="1" vertex="1">
          <mxGeometry x="280" y="630" width="30" height="90" as="geometry" />
        </mxCell>
        <mxCell id="CFoMmbY4XtNixEHZfKA1-223" value="&lt;font&gt;act&lt;/font&gt;" style="rounded=1;whiteSpace=wrap;html=1;align=left;textDirection=vertical-rl;fontSize=30;fillColor=#dae8fc;strokeColor=#6c8ebf;container=0;" parent="1" vertex="1">
          <mxGeometry x="40" y="680" width="30" height="95" as="geometry" />
        </mxCell>
        <mxCell id="CFoMmbY4XtNixEHZfKA1-224" value="&lt;font&gt;obs&lt;/font&gt;" style="rounded=1;whiteSpace=wrap;html=1;align=left;textDirection=vertical-rl;fontSize=30;fillColor=#ffe6cc;strokeColor=#d79b00;container=0;" parent="1" vertex="1">
          <mxGeometry x="450" y="570" width="30" height="95" as="geometry" />
        </mxCell>
        <mxCell id="CFoMmbY4XtNixEHZfKA1-225" value="&lt;font&gt;act&lt;/font&gt;" style="rounded=1;whiteSpace=wrap;html=1;align=left;textDirection=vertical-rl;fontSize=30;fillColor=#dae8fc;strokeColor=#6c8ebf;container=0;" parent="1" vertex="1">
          <mxGeometry x="450" y="675" width="30" height="95" as="geometry" />
        </mxCell>
        <mxCell id="CFoMmbY4XtNixEHZfKA1-226" value="" style="endArrow=blockThin;html=1;rounded=0;exitX=0.5;exitY=1;exitDx=0;exitDy=0;endFill=1;movable=1;resizable=1;rotatable=1;deletable=1;editable=1;locked=0;connectable=1;exitPerimeter=0;entryX=0;entryY=0.5;entryDx=0;entryDy=0;" parent="1" source="CFoMmbY4XtNixEHZfKA1-35" target="CFoMmbY4XtNixEHZfKA1-191" edge="1">
          <mxGeometry width="50" height="50" relative="1" as="geometry">
            <mxPoint x="-470" y="960" as="sourcePoint" />
            <mxPoint x="-10" y="630" as="targetPoint" />
            <Array as="points">
              <mxPoint x="-515" y="960" />
              <mxPoint x="-250" y="960" />
              <mxPoint x="-100" y="960" />
              <mxPoint x="-10" y="960" />
              <mxPoint x="-10" y="623" />
            </Array>
          </mxGeometry>
        </mxCell>
        <mxCell id="CFoMmbY4XtNixEHZfKA1-227" value="" style="endArrow=blockThin;html=1;rounded=0;exitX=0.5;exitY=1;exitDx=0;exitDy=0;endFill=1;movable=1;resizable=1;rotatable=1;deletable=1;editable=1;locked=0;connectable=1;exitPerimeter=0;entryX=0;entryY=0.5;entryDx=0;entryDy=0;" parent="1" source="CFoMmbY4XtNixEHZfKA1-35" target="CFoMmbY4XtNixEHZfKA1-223" edge="1">
          <mxGeometry width="50" height="50" relative="1" as="geometry">
            <mxPoint x="80" y="1187" as="sourcePoint" />
            <mxPoint x="683" y="840" as="targetPoint" />
            <Array as="points">
              <mxPoint x="-515" y="960" />
              <mxPoint x="-10" y="960" />
              <mxPoint x="-10" y="728" />
            </Array>
          </mxGeometry>
        </mxCell>
        <mxCell id="CFoMmbY4XtNixEHZfKA1-228" value="" style="endArrow=blockThin;html=1;rounded=0;exitX=0.5;exitY=1;exitDx=0;exitDy=0;endFill=1;movable=1;resizable=1;rotatable=1;deletable=1;editable=1;locked=0;connectable=1;exitPerimeter=0;entryX=0;entryY=0.5;entryDx=0;entryDy=0;" parent="1" source="CFoMmbY4XtNixEHZfKA1-35" target="CFoMmbY4XtNixEHZfKA1-225" edge="1">
          <mxGeometry width="50" height="50" relative="1" as="geometry">
            <mxPoint x="130" y="1092" as="sourcePoint" />
            <mxPoint x="733" y="850" as="targetPoint" />
            <Array as="points">
              <mxPoint x="-515" y="960" />
              <mxPoint x="400" y="960" />
              <mxPoint x="400" y="870" />
              <mxPoint x="400" y="723" />
            </Array>
          </mxGeometry>
        </mxCell>
        <mxCell id="CFoMmbY4XtNixEHZfKA1-229" value="" style="endArrow=blockThin;html=1;rounded=0;endFill=1;movable=1;resizable=1;rotatable=1;deletable=1;editable=1;locked=0;connectable=1;entryX=0;entryY=0.5;entryDx=0;entryDy=0;exitX=0.5;exitY=1;exitDx=0;exitDy=0;exitPerimeter=0;" parent="1" source="CFoMmbY4XtNixEHZfKA1-35" target="CFoMmbY4XtNixEHZfKA1-224" edge="1">
          <mxGeometry width="50" height="50" relative="1" as="geometry">
            <mxPoint x="-360" y="970" as="sourcePoint" />
            <mxPoint x="450" y="720" as="targetPoint" />
            <Array as="points">
              <mxPoint x="-515" y="960" />
              <mxPoint x="-100" y="960" />
              <mxPoint x="400" y="960" />
              <mxPoint x="400" y="867" />
              <mxPoint x="400" y="618" />
            </Array>
          </mxGeometry>
        </mxCell>
        <mxCell id="CFoMmbY4XtNixEHZfKA1-230" value="" style="endArrow=blockThin;html=1;rounded=0;exitX=0.5;exitY=1;exitDx=0;exitDy=0;endFill=1;movable=1;resizable=1;rotatable=1;deletable=1;editable=1;locked=0;connectable=1;exitPerimeter=0;entryX=0;entryY=0.5;entryDx=0;entryDy=0;" parent="1" source="CFoMmbY4XtNixEHZfKA1-35" target="CFoMmbY4XtNixEHZfKA1-187" edge="1">
          <mxGeometry width="50" height="50" relative="1" as="geometry">
            <mxPoint y="997" as="sourcePoint" />
            <mxPoint x="603" y="650" as="targetPoint" />
            <Array as="points">
              <mxPoint x="-515" y="960" />
              <mxPoint x="-390" y="960" />
              <mxPoint x="-200" y="960" />
              <mxPoint x="-10" y="960" />
              <mxPoint x="-10" y="640" />
              <mxPoint x="-10" y="310" />
            </Array>
          </mxGeometry>
        </mxCell>
        <mxCell id="CFoMmbY4XtNixEHZfKA1-231" value="" style="endArrow=none;html=1;rounded=0;exitX=0.5;exitY=0;exitDx=0;exitDy=0;endFill=1;movable=1;resizable=1;rotatable=1;deletable=1;editable=1;locked=0;connectable=1;entryX=1;entryY=0.5;entryDx=0;entryDy=0;startArrow=block;startFill=1;" parent="1" source="CFoMmbY4XtNixEHZfKA1-31" target="CFoMmbY4XtNixEHZfKA1-190" edge="1">
          <mxGeometry width="50" height="50" relative="1" as="geometry">
            <mxPoint x="-310" y="810" as="sourcePoint" />
            <mxPoint x="293" y="150" as="targetPoint" />
            <Array as="points">
              <mxPoint x="-394" y="130" />
              <mxPoint x="-130" y="130" />
              <mxPoint x="-50" y="130" />
              <mxPoint x="340" y="130" />
              <mxPoint x="340" y="310" />
            </Array>
          </mxGeometry>
        </mxCell>
        <mxCell id="CFoMmbY4XtNixEHZfKA1-232" value="&lt;font&gt;sample&lt;/font&gt;" style="text;html=1;align=center;verticalAlign=middle;whiteSpace=wrap;rounded=0;fontSize=30;container=0;" parent="1" vertex="1">
          <mxGeometry x="-320" y="920" width="110" height="30" as="geometry" />
        </mxCell>
        <mxCell id="CFoMmbY4XtNixEHZfKA1-233" value="&lt;font&gt;Actor&lt;/font&gt;" style="text;html=1;align=center;verticalAlign=middle;whiteSpace=wrap;rounded=0;container=0;fontSize=30;" parent="1" vertex="1">
          <mxGeometry x="140" y="160" width="60" height="30" as="geometry" />
        </mxCell>
        <mxCell id="CFoMmbY4XtNixEHZfKA1-236" value="&lt;font&gt;Critic&lt;/font&gt;" style="text;html=1;align=center;verticalAlign=middle;whiteSpace=wrap;rounded=0;container=0;fontSize=30;" parent="1" vertex="1">
          <mxGeometry x="145.17" y="530" width="60" height="30" as="geometry" />
        </mxCell>
        <mxCell id="CFoMmbY4XtNixEHZfKA1-237" value="&lt;font&gt;Cost Critic&lt;/font&gt;" style="text;html=1;align=center;verticalAlign=middle;whiteSpace=wrap;rounded=0;container=0;fontSize=30;" parent="1" vertex="1">
          <mxGeometry x="510.17" y="530" width="150" height="30" as="geometry" />
        </mxCell>
        <mxCell id="CFoMmbY4XtNixEHZfKA1-238" value="" style="endArrow=blockThin;html=1;rounded=0;endFill=1;movable=1;resizable=1;rotatable=1;deletable=1;editable=1;locked=0;connectable=1;entryX=0.214;entryY=1.015;entryDx=0;entryDy=0;exitX=1;exitY=0.5;exitDx=0;exitDy=0;entryPerimeter=0;" parent="1" source="CFoMmbY4XtNixEHZfKA1-192" target="CFoMmbY4XtNixEHZfKA1-152" edge="1">
          <mxGeometry width="50" height="50" relative="1" as="geometry">
            <mxPoint x="520" y="902" as="sourcePoint" />
            <mxPoint x="1533" y="550" as="targetPoint" />
            <Array as="points">
              <mxPoint x="350" y="675" />
              <mxPoint x="350" y="490" />
              <mxPoint x="260" y="490" />
              <mxPoint x="120" y="490" />
            </Array>
          </mxGeometry>
        </mxCell>
        <mxCell id="CFoMmbY4XtNixEHZfKA1-239" value="" style="endArrow=blockThin;html=1;rounded=0;endFill=1;movable=1;resizable=1;rotatable=1;deletable=1;editable=1;locked=0;connectable=1;entryX=0.5;entryY=1;entryDx=0;entryDy=0;exitX=1;exitY=0.5;exitDx=0;exitDy=0;" parent="1" source="CFoMmbY4XtNixEHZfKA1-222" target="CFoMmbY4XtNixEHZfKA1-152" edge="1">
          <mxGeometry width="50" height="50" relative="1" as="geometry">
            <mxPoint x="515" y="605" as="sourcePoint" />
            <mxPoint x="390" y="340" as="targetPoint" />
            <Array as="points">
              <mxPoint x="740" y="670" />
              <mxPoint x="740" y="490" />
              <mxPoint x="475" y="490" />
              <mxPoint x="175" y="490" />
            </Array>
          </mxGeometry>
        </mxCell>
        <mxCell id="CFoMmbY4XtNixEHZfKA1-266" value="&lt;font&gt;observation&lt;/font&gt;" style="rounded=1;whiteSpace=wrap;html=1;align=left;textDirection=vertical-rl;fontSize=30;fillColor=#ffe6cc;strokeColor=#d79b00;container=0;" parent="1" vertex="1">
          <mxGeometry x="460" y="210" width="30" height="200" as="geometry" />
        </mxCell>
        <mxCell id="CFoMmbY4XtNixEHZfKA1-267" value="&lt;span&gt;Lagrange multiplier&lt;/span&gt;" style="rounded=1;whiteSpace=wrap;html=1;align=left;textDirection=vertical-rl;fontSize=30;fillColor=#d5e8d4;strokeColor=#82b366;container=0;" parent="1" vertex="1">
          <mxGeometry x="700" y="217.62" width="70" height="160" as="geometry" />
        </mxCell>
        <mxCell id="CFoMmbY4XtNixEHZfKA1-270" value="" style="endArrow=blockThin;html=1;rounded=0;exitX=0.5;exitY=1;exitDx=0;exitDy=0;endFill=1;movable=1;resizable=1;rotatable=1;deletable=1;editable=1;locked=0;connectable=1;exitPerimeter=0;entryX=0;entryY=0.5;entryDx=0;entryDy=0;" parent="1" source="CFoMmbY4XtNixEHZfKA1-35" target="CFoMmbY4XtNixEHZfKA1-266" edge="1">
          <mxGeometry width="50" height="50" relative="1" as="geometry">
            <mxPoint x="120" y="1150" as="sourcePoint" />
            <mxPoint x="723" y="490" as="targetPoint" />
            <Array as="points">
              <mxPoint x="-515" y="960" />
              <mxPoint x="-350" y="960" />
              <mxPoint x="-260" y="960" />
              <mxPoint x="-10" y="960" />
              <mxPoint x="-10" y="460" />
              <mxPoint x="410" y="460" />
              <mxPoint x="410" y="310" />
            </Array>
          </mxGeometry>
        </mxCell>
        <mxCell id="CFoMmbY4XtNixEHZfKA1-271" value="" style="endArrow=blockThin;html=1;rounded=0;exitX=1;exitY=0.5;exitDx=0;exitDy=0;endFill=1;movable=1;resizable=1;rotatable=1;deletable=1;editable=1;locked=0;connectable=1;entryX=0.789;entryY=1.005;entryDx=0;entryDy=0;fillColor=#d5e8d4;strokeColor=#82b366;entryPerimeter=0;" parent="1" source="CFoMmbY4XtNixEHZfKA1-267" target="CFoMmbY4XtNixEHZfKA1-152" edge="1">
          <mxGeometry width="50" height="50" relative="1" as="geometry">
            <mxPoint x="480" y="1120" as="sourcePoint" />
            <mxPoint x="290" y="390" as="targetPoint" />
            <Array as="points">
              <mxPoint x="800" y="298" />
              <mxPoint x="800" y="440" />
              <mxPoint x="760" y="440" />
              <mxPoint x="230" y="440" />
            </Array>
          </mxGeometry>
        </mxCell>
        <mxCell id="CFoMmbY4XtNixEHZfKA1-272" value="&lt;font&gt;Lagrange Multiplier Network&lt;/font&gt;" style="text;html=1;align=center;verticalAlign=middle;whiteSpace=wrap;rounded=0;container=0;fontSize=30;" parent="1" vertex="1">
          <mxGeometry x="414" y="160" width="380" height="30" as="geometry" />
        </mxCell>
        <mxCell id="-vQCBwibYcYXOsZtxjmh-1" value="`a_t`: action" style="text;html=1;align=center;verticalAlign=middle;whiteSpace=wrap;rounded=0;fontSize=30;container=0;" parent="1" vertex="1">
          <mxGeometry x="-70" y="90" width="140" height="30" as="geometry" />
        </mxCell>
        <mxCell id="CFoMmbY4XtNixEHZfKA1-31" value="" style="rounded=1;whiteSpace=wrap;html=1;fillColor=none;movable=1;resizable=1;rotatable=1;deletable=1;editable=1;locked=0;connectable=1;container=0;" parent="1" vertex="1">
          <mxGeometry x="-700" y="270" width="612" height="450" as="geometry" />
        </mxCell>
        <mxCell id="CFoMmbY4XtNixEHZfKA1-1" value="" style="rounded=0;whiteSpace=wrap;html=1;fillColor=#f8cecc;strokeColor=default;rotation=15;container=0;movable=1;resizable=1;rotatable=1;deletable=1;editable=1;locked=0;connectable=1;" parent="1" vertex="1">
          <mxGeometry x="-422.621049453614" y="516.0028827345207" width="78.75" height="68.57142857142857" as="geometry" />
        </mxCell>
        <mxCell id="CFoMmbY4XtNixEHZfKA1-2" value="" style="rounded=0;whiteSpace=wrap;html=1;fillColor=#dae8fc;strokeColor=default;rotation=15;container=0;movable=1;resizable=1;rotatable=1;deletable=1;editable=1;locked=0;connectable=1;" parent="1" vertex="1">
          <mxGeometry x="-407.746049453614" y="582.8600255916634" width="26.25" height="17.142857142857142" as="geometry" />
        </mxCell>
        <mxCell id="CFoMmbY4XtNixEHZfKA1-3" value="" style="rounded=0;whiteSpace=wrap;html=1;fillColor=#dae8fc;strokeColor=default;rotation=15;container=0;movable=1;resizable=1;rotatable=1;deletable=1;editable=1;locked=0;connectable=1;" parent="1" vertex="1">
          <mxGeometry x="-376.246049453614" y="499.7171684488063" width="8.75" height="17.142857142857142" as="geometry" />
        </mxCell>
        <mxCell id="CFoMmbY4XtNixEHZfKA1-4" value="" style="rounded=0;whiteSpace=wrap;html=1;fillColor=#dae8fc;strokeColor=default;rotation=15;container=0;movable=1;resizable=1;rotatable=1;deletable=1;editable=1;locked=0;connectable=1;" parent="1" vertex="1">
          <mxGeometry x="-416.496049453614" y="492.0028827345206" width="96.25" height="8.571428571428571" as="geometry" />
        </mxCell>
        <mxCell id="CFoMmbY4XtNixEHZfKA1-5" value="" style="shape=cylinder3;whiteSpace=wrap;html=1;boundedLbl=1;backgroundOutline=1;size=2.875;direction=south;fillColor=#f8cecc;strokeColor=default;rotation=15;container=0;movable=1;resizable=1;rotatable=1;deletable=1;editable=1;locked=0;connectable=1;" parent="1" vertex="1">
          <mxGeometry x="-321.996049453614" y="498.0028827345206" width="21.875" height="25.71428571428571" as="geometry" />
        </mxCell>
        <mxCell id="CFoMmbY4XtNixEHZfKA1-6" value="" style="shape=cylinder3;whiteSpace=wrap;html=1;boundedLbl=1;backgroundOutline=1;size=2.875;direction=south;fillColor=#f8cecc;strokeColor=default;rotation=15;container=0;movable=1;resizable=1;rotatable=1;deletable=1;editable=1;locked=0;connectable=1;" parent="1" vertex="1">
          <mxGeometry x="-435.746049453614" y="468.0028827345206" width="21.875" height="25.71428571428571" as="geometry" />
        </mxCell>
        <mxCell id="CFoMmbY4XtNixEHZfKA1-8" value="" style="ellipse;whiteSpace=wrap;html=1;fillColor=none;movable=1;resizable=1;rotatable=1;deletable=1;editable=1;locked=0;connectable=1;container=0;" parent="1" vertex="1">
          <mxGeometry x="-389.5" y="415" width="10" height="10" as="geometry" />
        </mxCell>
        <mxCell id="CFoMmbY4XtNixEHZfKA1-9" value="" style="ellipse;whiteSpace=wrap;html=1;fillColor=none;movable=1;resizable=1;rotatable=1;deletable=1;editable=1;locked=0;connectable=1;container=0;" parent="1" vertex="1">
          <mxGeometry x="-435.75" y="425" width="10" height="10" as="geometry" />
        </mxCell>
        <mxCell id="CFoMmbY4XtNixEHZfKA1-10" value="" style="ellipse;whiteSpace=wrap;html=1;fillColor=#d5e8d4;strokeColor=#82b366;opacity=80;movable=1;resizable=1;rotatable=1;deletable=1;editable=1;locked=0;connectable=1;container=0;" parent="1" vertex="1">
          <mxGeometry x="-343" y="424" width="10" height="10" as="geometry" />
        </mxCell>
        <mxCell id="CFoMmbY4XtNixEHZfKA1-11" value="" style="ellipse;whiteSpace=wrap;html=1;fillColor=none;movable=1;resizable=1;rotatable=1;deletable=1;editable=1;locked=0;connectable=1;container=0;" parent="1" vertex="1">
          <mxGeometry x="-478" y="458" width="10" height="10" as="geometry" />
        </mxCell>
        <mxCell id="CFoMmbY4XtNixEHZfKA1-12" value="" style="ellipse;whiteSpace=wrap;html=1;fillColor=#d5e8d4;strokeColor=#82b366;movable=1;resizable=1;rotatable=1;deletable=1;editable=1;locked=0;connectable=1;container=0;" parent="1" vertex="1">
          <mxGeometry x="-301" y="454" width="10" height="10" as="geometry" />
        </mxCell>
        <mxCell id="CFoMmbY4XtNixEHZfKA1-13" value="" style="ellipse;whiteSpace=wrap;html=1;fillColor=#d5e8d4;strokeColor=#82b366;opacity=60;movable=1;resizable=1;rotatable=1;deletable=1;editable=1;locked=0;connectable=1;container=0;" parent="1" vertex="1">
          <mxGeometry x="-276.12" y="504.86" width="10" height="10" as="geometry" />
        </mxCell>
        <mxCell id="CFoMmbY4XtNixEHZfKA1-14" value="" style="ellipse;whiteSpace=wrap;html=1;fillColor=#dae8fc;strokeColor=#6c8ebf;opacity=80;movable=1;resizable=1;rotatable=1;deletable=1;editable=1;locked=0;connectable=1;container=0;" parent="1" vertex="1">
          <mxGeometry x="-277.12" y="560" width="10" height="10" as="geometry" />
        </mxCell>
        <mxCell id="CFoMmbY4XtNixEHZfKA1-15" value="" style="ellipse;whiteSpace=wrap;html=1;fillColor=#dae8fc;strokeColor=#6c8ebf;movable=1;resizable=1;rotatable=1;deletable=1;editable=1;locked=0;connectable=1;container=0;" parent="1" vertex="1">
          <mxGeometry x="-298.12" y="601" width="10" height="10" as="geometry" />
        </mxCell>
        <mxCell id="CFoMmbY4XtNixEHZfKA1-16" value="" style="ellipse;whiteSpace=wrap;html=1;fillColor=#dae8fc;strokeColor=#6c8ebf;opacity=60;movable=1;resizable=1;rotatable=1;deletable=1;editable=1;locked=0;connectable=1;container=0;" parent="1" vertex="1">
          <mxGeometry x="-330.25" y="628" width="10" height="10" as="geometry" />
        </mxCell>
        <mxCell id="CFoMmbY4XtNixEHZfKA1-17" value="" style="ellipse;whiteSpace=wrap;html=1;fillColor=none;movable=1;resizable=1;rotatable=1;deletable=1;editable=1;locked=0;connectable=1;container=0;" parent="1" vertex="1">
          <mxGeometry x="-384.24" y="645" width="10" height="10" as="geometry" />
        </mxCell>
        <mxCell id="CFoMmbY4XtNixEHZfKA1-18" value="" style="ellipse;whiteSpace=wrap;html=1;fillColor=#e1d5e7;strokeColor=#9673a6;opacity=80;movable=1;resizable=1;rotatable=1;deletable=1;editable=1;locked=0;connectable=1;container=0;" parent="1" vertex="1">
          <mxGeometry x="-437.75" y="633" width="10" height="10" as="geometry" />
        </mxCell>
        <mxCell id="CFoMmbY4XtNixEHZfKA1-19" value="" style="ellipse;whiteSpace=wrap;html=1;fillColor=none;movable=1;resizable=1;rotatable=1;deletable=1;editable=1;locked=0;connectable=1;container=0;" parent="1" vertex="1">
          <mxGeometry x="-500.37" y="505.57" width="10" height="10" as="geometry" />
        </mxCell>
        <mxCell id="CFoMmbY4XtNixEHZfKA1-20" value="" style="ellipse;whiteSpace=wrap;html=1;fillColor=#e1d5e7;strokeColor=#9673a6;opacity=80;movable=1;resizable=1;rotatable=1;deletable=1;editable=1;locked=0;connectable=1;container=0;" parent="1" vertex="1">
          <mxGeometry x="-499.37" y="560" width="10" height="10" as="geometry" />
        </mxCell>
        <mxCell id="CFoMmbY4XtNixEHZfKA1-21" value="" style="ellipse;whiteSpace=wrap;html=1;fillColor=#e1d5e7;strokeColor=#9673a6;movable=1;resizable=1;rotatable=1;deletable=1;editable=1;locked=0;connectable=1;container=0;" parent="1" vertex="1">
          <mxGeometry x="-475" y="605" width="10" height="10" as="geometry" />
        </mxCell>
        <mxCell id="CFoMmbY4XtNixEHZfKA1-22" value="" style="shape=cylinder3;whiteSpace=wrap;html=1;boundedLbl=1;backgroundOutline=1;size=9.481481481481381;fillColor=#d5e8d4;strokeColor=#82b366;movable=1;resizable=1;rotatable=1;deletable=1;editable=1;locked=0;connectable=1;container=0;" parent="1" vertex="1">
          <mxGeometry x="-276.12" y="320" width="140" height="90" as="geometry" />
        </mxCell>
        <mxCell id="CFoMmbY4XtNixEHZfKA1-23" value="Goal" style="text;html=1;align=center;verticalAlign=middle;whiteSpace=wrap;rounded=0;fontSize=30;fontColor=#B9E0A5;fontStyle=1;movable=1;resizable=1;rotatable=1;deletable=1;editable=1;locked=0;connectable=1;container=0;" parent="1" vertex="1">
          <mxGeometry x="-260" y="280" width="83.88" height="30" as="geometry" />
        </mxCell>
        <mxCell id="CFoMmbY4XtNixEHZfKA1-24" value="" style="shape=cube;whiteSpace=wrap;html=1;boundedLbl=1;backgroundOutline=1;darkOpacity=0.05;darkOpacity2=0.1;size=17;fillColor=#dae8fc;strokeColor=#6c8ebf;movable=1;resizable=1;rotatable=1;deletable=1;editable=1;locked=0;connectable=1;container=0;" parent="1" vertex="1">
          <mxGeometry x="-188" y="600" width="70" height="67" as="geometry" />
        </mxCell>
        <mxCell id="CFoMmbY4XtNixEHZfKA1-25" value="&lt;span style=&quot;background-color: light-dark(#ffffff, var(--ge-dark-color, #121212));&quot;&gt;Vases&lt;/span&gt;" style="text;html=1;align=center;verticalAlign=middle;whiteSpace=wrap;rounded=0;fontSize=30;fontColor=#A9C4EB;fontStyle=1;movable=1;resizable=1;rotatable=1;deletable=1;editable=1;locked=0;connectable=1;container=0;" parent="1" vertex="1">
          <mxGeometry x="-220" y="554.57" width="92" height="30" as="geometry" />
        </mxCell>
        <mxCell id="CFoMmbY4XtNixEHZfKA1-26" value="&lt;font style=&quot;color: rgb(234, 107, 102);&quot;&gt;Agent&lt;/font&gt;" style="text;html=1;align=center;verticalAlign=middle;whiteSpace=wrap;rounded=0;fontSize=30;fontColor=#B9E0A5;fontStyle=1;movable=1;resizable=1;rotatable=1;deletable=1;editable=1;locked=0;connectable=1;container=0;" parent="1" vertex="1">
          <mxGeometry x="-547.55" y="523.72" width="104.37" height="30" as="geometry" />
        </mxCell>
        <mxCell id="CFoMmbY4XtNixEHZfKA1-27" value="" style="ellipse;whiteSpace=wrap;html=1;fillColor=#e1d5e7;strokeColor=#9673a6;movable=1;resizable=1;rotatable=1;deletable=1;editable=1;locked=0;connectable=1;container=0;" parent="1" vertex="1">
          <mxGeometry x="-588" y="628" width="80" height="75" as="geometry" />
        </mxCell>
        <mxCell id="CFoMmbY4XtNixEHZfKA1-28" value="&lt;font style=&quot;color: rgb(181, 115, 157);&quot;&gt;Hazard&lt;/font&gt;" style="text;html=1;align=center;verticalAlign=middle;whiteSpace=wrap;rounded=0;fontSize=30;fontColor=#B9E0A5;fontStyle=1;movable=1;resizable=1;rotatable=1;deletable=1;editable=1;locked=0;connectable=1;container=0;" parent="1" vertex="1">
          <mxGeometry x="-658" y="603" width="60" height="30" as="geometry" />
        </mxCell>
        <mxCell id="CFoMmbY4XtNixEHZfKA1-33" value="&lt;b&gt;&lt;font style=&quot;font-size: 40px;&quot;&gt;Simulation&lt;/font&gt;&lt;/b&gt;" style="text;html=1;align=center;verticalAlign=middle;whiteSpace=wrap;rounded=0;movable=1;resizable=1;rotatable=1;deletable=1;editable=1;locked=0;connectable=1;container=0;" parent="1" vertex="1">
          <mxGeometry x="-638" y="300" width="180" height="30" as="geometry" />
        </mxCell>
        <mxCell id="CFoMmbY4XtNixEHZfKA1-96" value="" style="ellipse;whiteSpace=wrap;html=1;aspect=fixed;container=0;" parent="1" vertex="1">
          <mxGeometry x="90" y="611.8867924528302" width="16.02004716981132" height="16.02004716981132" as="geometry" />
        </mxCell>
        <mxCell id="CFoMmbY4XtNixEHZfKA1-97" value="" style="ellipse;whiteSpace=wrap;html=1;aspect=fixed;container=0;" parent="1" vertex="1">
          <mxGeometry x="90" y="669.2452830188679" width="16.02004716981132" height="16.02004716981132" as="geometry" />
        </mxCell>
        <mxCell id="CFoMmbY4XtNixEHZfKA1-98" value="" style="ellipse;whiteSpace=wrap;html=1;aspect=fixed;container=0;" parent="1" vertex="1">
          <mxGeometry x="90" y="726.6037735849056" width="16.02004716981132" height="16.02004716981132" as="geometry" />
        </mxCell>
        <mxCell id="CFoMmbY4XtNixEHZfKA1-99" value="" style="ellipse;whiteSpace=wrap;html=1;aspect=fixed;container=0;" parent="1" vertex="1">
          <mxGeometry x="167.15736040609136" y="585" width="16.02004716981132" height="16.02004716981132" as="geometry" />
        </mxCell>
        <mxCell id="CFoMmbY4XtNixEHZfKA1-100" value="" style="ellipse;whiteSpace=wrap;html=1;aspect=fixed;container=0;" parent="1" vertex="1">
          <mxGeometry x="167.15736040609136" y="638.7735849056604" width="16.02004716981132" height="16.02004716981132" as="geometry" />
        </mxCell>
        <mxCell id="CFoMmbY4XtNixEHZfKA1-101" value="" style="ellipse;whiteSpace=wrap;html=1;aspect=fixed;container=0;" parent="1" vertex="1">
          <mxGeometry x="167.15736040609136" y="692.5471698113207" width="16.02004716981132" height="16.02004716981132" as="geometry" />
        </mxCell>
        <mxCell id="CFoMmbY4XtNixEHZfKA1-102" value="" style="ellipse;whiteSpace=wrap;html=1;aspect=fixed;container=0;" parent="1" vertex="1">
          <mxGeometry x="167.15736040609136" y="746.3207547169811" width="16.02004716981132" height="16.02004716981132" as="geometry" />
        </mxCell>
        <mxCell id="CFoMmbY4XtNixEHZfKA1-103" value="" style="ellipse;whiteSpace=wrap;html=1;aspect=fixed;container=0;" parent="1" vertex="1">
          <mxGeometry x="241.42131979695432" y="669.2452830188679" width="16.02004716981132" height="16.02004716981132" as="geometry" />
        </mxCell>
        <mxCell id="CFoMmbY4XtNixEHZfKA1-104" value="" style="endArrow=none;html=1;rounded=0;exitX=1;exitY=0.5;exitDx=0;exitDy=0;entryX=0;entryY=0.5;entryDx=0;entryDy=0;" parent="1" source="CFoMmbY4XtNixEHZfKA1-96" target="CFoMmbY4XtNixEHZfKA1-99" edge="1">
          <mxGeometry width="50" height="50" relative="1" as="geometry">
            <mxPoint x="229.84771573604058" y="703.3018867924528" as="sourcePoint" />
            <mxPoint x="253.95939086294416" y="685.377358490566" as="targetPoint" />
          </mxGeometry>
        </mxCell>
        <mxCell id="CFoMmbY4XtNixEHZfKA1-105" value="" style="endArrow=none;html=1;rounded=0;exitX=0;exitY=0.5;exitDx=0;exitDy=0;entryX=1;entryY=0.5;entryDx=0;entryDy=0;" parent="1" source="CFoMmbY4XtNixEHZfKA1-100" target="CFoMmbY4XtNixEHZfKA1-96" edge="1">
          <mxGeometry width="50" height="50" relative="1" as="geometry">
            <mxPoint x="167.15736040609136" y="651.3207547169811" as="sourcePoint" />
            <mxPoint x="205.73604060913704" y="624.433962264151" as="targetPoint" />
          </mxGeometry>
        </mxCell>
        <mxCell id="CFoMmbY4XtNixEHZfKA1-106" value="" style="endArrow=none;html=1;rounded=0;exitX=0;exitY=0.5;exitDx=0;exitDy=0;entryX=1;entryY=0.5;entryDx=0;entryDy=0;" parent="1" source="CFoMmbY4XtNixEHZfKA1-101" target="CFoMmbY4XtNixEHZfKA1-96" edge="1">
          <mxGeometry width="50" height="50" relative="1" as="geometry">
            <mxPoint x="234.67005076142135" y="694.3396226415094" as="sourcePoint" />
            <mxPoint x="196.09137055837562" y="667.4528301886793" as="targetPoint" />
          </mxGeometry>
        </mxCell>
        <mxCell id="CFoMmbY4XtNixEHZfKA1-107" value="" style="endArrow=none;html=1;rounded=0;exitX=0;exitY=0.5;exitDx=0;exitDy=0;entryX=1;entryY=0.5;entryDx=0;entryDy=0;" parent="1" source="CFoMmbY4XtNixEHZfKA1-102" target="CFoMmbY4XtNixEHZfKA1-96" edge="1">
          <mxGeometry width="50" height="50" relative="1" as="geometry">
            <mxPoint x="244.31472081218274" y="762.4528301886793" as="sourcePoint" />
            <mxPoint x="181.62436548223351" y="631.6037735849056" as="targetPoint" />
          </mxGeometry>
        </mxCell>
        <mxCell id="CFoMmbY4XtNixEHZfKA1-108" value="" style="endArrow=none;html=1;rounded=0;exitX=0;exitY=0.5;exitDx=0;exitDy=0;entryX=1;entryY=0.5;entryDx=0;entryDy=0;" parent="1" source="CFoMmbY4XtNixEHZfKA1-99" target="CFoMmbY4XtNixEHZfKA1-97" edge="1">
          <mxGeometry width="50" height="50" relative="1" as="geometry">
            <mxPoint x="234.67005076142135" y="809.0566037735848" as="sourcePoint" />
            <mxPoint x="196.09137055837562" y="674.622641509434" as="targetPoint" />
          </mxGeometry>
        </mxCell>
        <mxCell id="CFoMmbY4XtNixEHZfKA1-109" value="" style="endArrow=none;html=1;rounded=0;exitX=0;exitY=0.5;exitDx=0;exitDy=0;entryX=1;entryY=0.5;entryDx=0;entryDy=0;" parent="1" source="CFoMmbY4XtNixEHZfKA1-100" target="CFoMmbY4XtNixEHZfKA1-97" edge="1">
          <mxGeometry width="50" height="50" relative="1" as="geometry">
            <mxPoint x="181.62436548223351" y="667.4528301886793" as="sourcePoint" />
            <mxPoint x="143.0456852791878" y="751.6981132075472" as="targetPoint" />
          </mxGeometry>
        </mxCell>
        <mxCell id="CFoMmbY4XtNixEHZfKA1-110" value="" style="endArrow=none;html=1;rounded=0;exitX=0;exitY=0.5;exitDx=0;exitDy=0;entryX=1;entryY=0.5;entryDx=0;entryDy=0;" parent="1" source="CFoMmbY4XtNixEHZfKA1-101" target="CFoMmbY4XtNixEHZfKA1-97" edge="1">
          <mxGeometry width="50" height="50" relative="1" as="geometry">
            <mxPoint x="191.26903553299493" y="681.7924528301887" as="sourcePoint" />
            <mxPoint x="152.69035532994923" y="712.2641509433962" as="targetPoint" />
          </mxGeometry>
        </mxCell>
        <mxCell id="CFoMmbY4XtNixEHZfKA1-111" value="" style="endArrow=none;html=1;rounded=0;exitX=0;exitY=0.5;exitDx=0;exitDy=0;entryX=1;entryY=0.5;entryDx=0;entryDy=0;" parent="1" source="CFoMmbY4XtNixEHZfKA1-102" target="CFoMmbY4XtNixEHZfKA1-97" edge="1">
          <mxGeometry width="50" height="50" relative="1" as="geometry">
            <mxPoint x="268.42639593908626" y="694.3396226415094" as="sourcePoint" />
            <mxPoint x="229.84771573604058" y="671.0377358490566" as="targetPoint" />
          </mxGeometry>
        </mxCell>
        <mxCell id="CFoMmbY4XtNixEHZfKA1-112" value="" style="endArrow=none;html=1;rounded=0;exitX=0;exitY=0.5;exitDx=0;exitDy=0;entryX=1;entryY=0.5;entryDx=0;entryDy=0;" parent="1" source="CFoMmbY4XtNixEHZfKA1-99" target="CFoMmbY4XtNixEHZfKA1-98" edge="1">
          <mxGeometry width="50" height="50" relative="1" as="geometry">
            <mxPoint x="268.42639593908626" y="794.7169811320755" as="sourcePoint" />
            <mxPoint x="229.84771573604058" y="717.6415094339623" as="targetPoint" />
          </mxGeometry>
        </mxCell>
        <mxCell id="CFoMmbY4XtNixEHZfKA1-113" value="" style="endArrow=none;html=1;rounded=0;exitX=0;exitY=0.5;exitDx=0;exitDy=0;entryX=1;entryY=0.5;entryDx=0;entryDy=0;" parent="1" source="CFoMmbY4XtNixEHZfKA1-100" target="CFoMmbY4XtNixEHZfKA1-98" edge="1">
          <mxGeometry width="50" height="50" relative="1" as="geometry">
            <mxPoint x="171.97969543147207" y="714.0566037735849" as="sourcePoint" />
            <mxPoint x="133.4010152284264" y="855.6603773584907" as="targetPoint" />
          </mxGeometry>
        </mxCell>
        <mxCell id="CFoMmbY4XtNixEHZfKA1-114" value="" style="endArrow=none;html=1;rounded=0;exitX=0;exitY=0.5;exitDx=0;exitDy=0;entryX=1;entryY=0.5;entryDx=0;entryDy=0;" parent="1" source="CFoMmbY4XtNixEHZfKA1-101" target="CFoMmbY4XtNixEHZfKA1-98" edge="1">
          <mxGeometry width="50" height="50" relative="1" as="geometry">
            <mxPoint x="215.38071065989845" y="714.0566037735849" as="sourcePoint" />
            <mxPoint x="176.80203045685278" y="801.8867924528302" as="targetPoint" />
          </mxGeometry>
        </mxCell>
        <mxCell id="CFoMmbY4XtNixEHZfKA1-115" value="" style="endArrow=none;html=1;rounded=0;exitX=0;exitY=0.5;exitDx=0;exitDy=0;entryX=1;entryY=0.5;entryDx=0;entryDy=0;" parent="1" source="CFoMmbY4XtNixEHZfKA1-102" target="CFoMmbY4XtNixEHZfKA1-98" edge="1">
          <mxGeometry width="50" height="50" relative="1" as="geometry">
            <mxPoint x="258.78172588832484" y="728.3962264150944" as="sourcePoint" />
            <mxPoint x="220.2030456852792" y="762.4528301886793" as="targetPoint" />
          </mxGeometry>
        </mxCell>
        <mxCell id="CFoMmbY4XtNixEHZfKA1-116" value="" style="endArrow=none;html=1;rounded=0;exitX=1;exitY=0.5;exitDx=0;exitDy=0;entryX=0;entryY=0.5;entryDx=0;entryDy=0;" parent="1" source="CFoMmbY4XtNixEHZfKA1-99" target="CFoMmbY4XtNixEHZfKA1-103" edge="1">
          <mxGeometry width="50" height="50" relative="1" as="geometry">
            <mxPoint x="287.71573604060916" y="656.6981132075472" as="sourcePoint" />
            <mxPoint x="249.13705583756342" y="798.3018867924528" as="targetPoint" />
          </mxGeometry>
        </mxCell>
        <mxCell id="CFoMmbY4XtNixEHZfKA1-117" value="" style="endArrow=none;html=1;rounded=0;exitX=1;exitY=0.5;exitDx=0;exitDy=0;entryX=0;entryY=0.5;entryDx=0;entryDy=0;" parent="1" source="CFoMmbY4XtNixEHZfKA1-100" target="CFoMmbY4XtNixEHZfKA1-103" edge="1">
          <mxGeometry width="50" height="50" relative="1" as="geometry">
            <mxPoint x="263.60406091370555" y="656.6981132075472" as="sourcePoint" />
            <mxPoint x="302.18274111675123" y="778.5849056603774" as="targetPoint" />
          </mxGeometry>
        </mxCell>
        <mxCell id="CFoMmbY4XtNixEHZfKA1-118" value="" style="endArrow=none;html=1;rounded=0;exitX=1;exitY=0.5;exitDx=0;exitDy=0;entryX=0;entryY=0.5;entryDx=0;entryDy=0;" parent="1" source="CFoMmbY4XtNixEHZfKA1-101" target="CFoMmbY4XtNixEHZfKA1-103" edge="1">
          <mxGeometry width="50" height="50" relative="1" as="geometry">
            <mxPoint x="244.31472081218274" y="660.2830188679245" as="sourcePoint" />
            <mxPoint x="282.8934010152284" y="728.3962264150944" as="targetPoint" />
          </mxGeometry>
        </mxCell>
        <mxCell id="CFoMmbY4XtNixEHZfKA1-119" value="" style="endArrow=none;html=1;rounded=0;exitX=1;exitY=0.5;exitDx=0;exitDy=0;entryX=0;entryY=0.5;entryDx=0;entryDy=0;" parent="1" source="CFoMmbY4XtNixEHZfKA1-102" target="CFoMmbY4XtNixEHZfKA1-103" edge="1">
          <mxGeometry width="50" height="50" relative="1" as="geometry">
            <mxPoint x="268.42639593908626" y="706.8867924528302" as="sourcePoint" />
            <mxPoint x="307.005076142132" y="721.2264150943396" as="targetPoint" />
          </mxGeometry>
        </mxCell>
        <mxCell id="CFoMmbY4XtNixEHZfKA1-185" value="" style="rounded=1;whiteSpace=wrap;html=1;fillColor=none;container=0;" parent="1" vertex="1">
          <mxGeometry x="77.17000000000002" y="574.01" width="190" height="198.99" as="geometry" />
        </mxCell>
        <mxCell id="CFoMmbY4XtNixEHZfKA1-121" value="" style="ellipse;whiteSpace=wrap;html=1;aspect=fixed;container=0;" parent="1" vertex="1">
          <mxGeometry x="90" y="246.74528301886792" width="15.351457237708285" height="15.351457237708285" as="geometry" />
        </mxCell>
        <mxCell id="CFoMmbY4XtNixEHZfKA1-122" value="" style="ellipse;whiteSpace=wrap;html=1;aspect=fixed;container=0;" parent="1" vertex="1">
          <mxGeometry x="90" y="303.8018867924528" width="15.351457237708285" height="15.351457237708285" as="geometry" />
        </mxCell>
        <mxCell id="CFoMmbY4XtNixEHZfKA1-123" value="" style="ellipse;whiteSpace=wrap;html=1;aspect=fixed;container=0;" parent="1" vertex="1">
          <mxGeometry x="90" y="360.85849056603774" width="15.351457237708285" height="15.351457237708285" as="geometry" />
        </mxCell>
        <mxCell id="CFoMmbY4XtNixEHZfKA1-124" value="" style="ellipse;whiteSpace=wrap;html=1;aspect=fixed;container=0;" parent="1" vertex="1">
          <mxGeometry x="166" y="220" width="15.351457237708285" height="15.351457237708285" as="geometry" />
        </mxCell>
        <mxCell id="CFoMmbY4XtNixEHZfKA1-125" value="" style="ellipse;whiteSpace=wrap;html=1;aspect=fixed;container=0;" parent="1" vertex="1">
          <mxGeometry x="166" y="273.49056603773585" width="15.351457237708285" height="15.351457237708285" as="geometry" />
        </mxCell>
        <mxCell id="CFoMmbY4XtNixEHZfKA1-126" value="" style="ellipse;whiteSpace=wrap;html=1;aspect=fixed;container=0;" parent="1" vertex="1">
          <mxGeometry x="166" y="326.9811320754717" width="15.351457237708285" height="15.351457237708285" as="geometry" />
        </mxCell>
        <mxCell id="CFoMmbY4XtNixEHZfKA1-127" value="" style="ellipse;whiteSpace=wrap;html=1;aspect=fixed;container=0;" parent="1" vertex="1">
          <mxGeometry x="166" y="380.4716981132075" width="15.351457237708285" height="15.351457237708285" as="geometry" />
        </mxCell>
        <mxCell id="CFoMmbY4XtNixEHZfKA1-128" value="" style="ellipse;whiteSpace=wrap;html=1;aspect=fixed;container=0;" parent="1" vertex="1">
          <mxGeometry x="242" y="255.66037735849056" width="15.351457237708285" height="15.351457237708285" as="geometry" />
        </mxCell>
        <mxCell id="CFoMmbY4XtNixEHZfKA1-129" value="" style="ellipse;whiteSpace=wrap;html=1;aspect=fixed;container=0;" parent="1" vertex="1">
          <mxGeometry x="242" y="341.2452830188679" width="15.351457237708285" height="15.351457237708285" as="geometry" />
        </mxCell>
        <mxCell id="CFoMmbY4XtNixEHZfKA1-130" value="" style="endArrow=none;html=1;rounded=0;exitX=1;exitY=0.5;exitDx=0;exitDy=0;entryX=0;entryY=0.5;entryDx=0;entryDy=0;" parent="1" source="CFoMmbY4XtNixEHZfKA1-121" target="CFoMmbY4XtNixEHZfKA1-124" edge="1">
          <mxGeometry width="50" height="50" relative="1" as="geometry">
            <mxPoint x="227.75" y="337.6792452830188" as="sourcePoint" />
            <mxPoint x="251.5" y="319.84905660377353" as="targetPoint" />
          </mxGeometry>
        </mxCell>
        <mxCell id="CFoMmbY4XtNixEHZfKA1-131" value="" style="endArrow=none;html=1;rounded=0;exitX=0;exitY=0.5;exitDx=0;exitDy=0;entryX=1;entryY=0.5;entryDx=0;entryDy=0;" parent="1" source="CFoMmbY4XtNixEHZfKA1-125" target="CFoMmbY4XtNixEHZfKA1-121" edge="1">
          <mxGeometry width="50" height="50" relative="1" as="geometry">
            <mxPoint x="166" y="285.97169811320754" as="sourcePoint" />
            <mxPoint x="204" y="259.22641509433964" as="targetPoint" />
          </mxGeometry>
        </mxCell>
        <mxCell id="CFoMmbY4XtNixEHZfKA1-132" value="" style="endArrow=none;html=1;rounded=0;exitX=0;exitY=0.5;exitDx=0;exitDy=0;entryX=1;entryY=0.5;entryDx=0;entryDy=0;" parent="1" source="CFoMmbY4XtNixEHZfKA1-126" target="CFoMmbY4XtNixEHZfKA1-121" edge="1">
          <mxGeometry width="50" height="50" relative="1" as="geometry">
            <mxPoint x="232.5" y="328.7641509433962" as="sourcePoint" />
            <mxPoint x="194.5" y="302.01886792452825" as="targetPoint" />
          </mxGeometry>
        </mxCell>
        <mxCell id="CFoMmbY4XtNixEHZfKA1-133" value="" style="endArrow=none;html=1;rounded=0;exitX=0;exitY=0.5;exitDx=0;exitDy=0;entryX=1;entryY=0.5;entryDx=0;entryDy=0;" parent="1" source="CFoMmbY4XtNixEHZfKA1-127" target="CFoMmbY4XtNixEHZfKA1-121" edge="1">
          <mxGeometry width="50" height="50" relative="1" as="geometry">
            <mxPoint x="242" y="396.51886792452825" as="sourcePoint" />
            <mxPoint x="180.25" y="266.3584905660377" as="targetPoint" />
          </mxGeometry>
        </mxCell>
        <mxCell id="CFoMmbY4XtNixEHZfKA1-134" value="" style="endArrow=none;html=1;rounded=0;exitX=0;exitY=0.5;exitDx=0;exitDy=0;entryX=1;entryY=0.5;entryDx=0;entryDy=0;" parent="1" source="CFoMmbY4XtNixEHZfKA1-124" target="CFoMmbY4XtNixEHZfKA1-122" edge="1">
          <mxGeometry width="50" height="50" relative="1" as="geometry">
            <mxPoint x="232.5" y="442.87735849056605" as="sourcePoint" />
            <mxPoint x="194.5" y="309.1509433962264" as="targetPoint" />
          </mxGeometry>
        </mxCell>
        <mxCell id="CFoMmbY4XtNixEHZfKA1-135" value="" style="endArrow=none;html=1;rounded=0;exitX=0;exitY=0.5;exitDx=0;exitDy=0;entryX=1;entryY=0.5;entryDx=0;entryDy=0;" parent="1" source="CFoMmbY4XtNixEHZfKA1-125" target="CFoMmbY4XtNixEHZfKA1-122" edge="1">
          <mxGeometry width="50" height="50" relative="1" as="geometry">
            <mxPoint x="180.25" y="302.01886792452825" as="sourcePoint" />
            <mxPoint x="142.25" y="385.820754716981" as="targetPoint" />
          </mxGeometry>
        </mxCell>
        <mxCell id="CFoMmbY4XtNixEHZfKA1-136" value="" style="endArrow=none;html=1;rounded=0;exitX=0;exitY=0.5;exitDx=0;exitDy=0;entryX=1;entryY=0.5;entryDx=0;entryDy=0;" parent="1" source="CFoMmbY4XtNixEHZfKA1-126" target="CFoMmbY4XtNixEHZfKA1-122" edge="1">
          <mxGeometry width="50" height="50" relative="1" as="geometry">
            <mxPoint x="189.75" y="316.2830188679245" as="sourcePoint" />
            <mxPoint x="151.75" y="346.5943396226415" as="targetPoint" />
          </mxGeometry>
        </mxCell>
        <mxCell id="CFoMmbY4XtNixEHZfKA1-137" value="" style="endArrow=none;html=1;rounded=0;exitX=0;exitY=0.5;exitDx=0;exitDy=0;entryX=1;entryY=0.5;entryDx=0;entryDy=0;" parent="1" source="CFoMmbY4XtNixEHZfKA1-127" target="CFoMmbY4XtNixEHZfKA1-122" edge="1">
          <mxGeometry width="50" height="50" relative="1" as="geometry">
            <mxPoint x="265.75" y="328.7641509433962" as="sourcePoint" />
            <mxPoint x="227.75" y="305.58490566037733" as="targetPoint" />
          </mxGeometry>
        </mxCell>
        <mxCell id="CFoMmbY4XtNixEHZfKA1-138" value="" style="endArrow=none;html=1;rounded=0;exitX=0;exitY=0.5;exitDx=0;exitDy=0;entryX=1;entryY=0.5;entryDx=0;entryDy=0;" parent="1" source="CFoMmbY4XtNixEHZfKA1-124" target="CFoMmbY4XtNixEHZfKA1-123" edge="1">
          <mxGeometry width="50" height="50" relative="1" as="geometry">
            <mxPoint x="265.75" y="428.61320754716974" as="sourcePoint" />
            <mxPoint x="227.75" y="351.9433962264151" as="targetPoint" />
          </mxGeometry>
        </mxCell>
        <mxCell id="CFoMmbY4XtNixEHZfKA1-139" value="" style="endArrow=none;html=1;rounded=0;exitX=0;exitY=0.5;exitDx=0;exitDy=0;entryX=1;entryY=0.5;entryDx=0;entryDy=0;" parent="1" source="CFoMmbY4XtNixEHZfKA1-125" target="CFoMmbY4XtNixEHZfKA1-123" edge="1">
          <mxGeometry width="50" height="50" relative="1" as="geometry">
            <mxPoint x="170.75" y="348.377358490566" as="sourcePoint" />
            <mxPoint x="132.75" y="489.23584905660374" as="targetPoint" />
          </mxGeometry>
        </mxCell>
        <mxCell id="CFoMmbY4XtNixEHZfKA1-140" value="" style="endArrow=none;html=1;rounded=0;exitX=0;exitY=0.5;exitDx=0;exitDy=0;entryX=1;entryY=0.5;entryDx=0;entryDy=0;" parent="1" source="CFoMmbY4XtNixEHZfKA1-126" target="CFoMmbY4XtNixEHZfKA1-123" edge="1">
          <mxGeometry width="50" height="50" relative="1" as="geometry">
            <mxPoint x="213.5" y="348.377358490566" as="sourcePoint" />
            <mxPoint x="175.5" y="435.7452830188679" as="targetPoint" />
          </mxGeometry>
        </mxCell>
        <mxCell id="CFoMmbY4XtNixEHZfKA1-141" value="" style="endArrow=none;html=1;rounded=0;exitX=0;exitY=0.5;exitDx=0;exitDy=0;entryX=1;entryY=0.5;entryDx=0;entryDy=0;" parent="1" source="CFoMmbY4XtNixEHZfKA1-127" target="CFoMmbY4XtNixEHZfKA1-123" edge="1">
          <mxGeometry width="50" height="50" relative="1" as="geometry">
            <mxPoint x="256.25" y="362.64150943396226" as="sourcePoint" />
            <mxPoint x="218.25" y="396.51886792452825" as="targetPoint" />
          </mxGeometry>
        </mxCell>
        <mxCell id="CFoMmbY4XtNixEHZfKA1-142" value="" style="endArrow=none;html=1;rounded=0;exitX=1;exitY=0.5;exitDx=0;exitDy=0;entryX=0;entryY=0.5;entryDx=0;entryDy=0;" parent="1" source="CFoMmbY4XtNixEHZfKA1-124" target="CFoMmbY4XtNixEHZfKA1-128" edge="1">
          <mxGeometry width="50" height="50" relative="1" as="geometry">
            <mxPoint x="284.75" y="291.3207547169811" as="sourcePoint" />
            <mxPoint x="246.75" y="432.17924528301876" as="targetPoint" />
          </mxGeometry>
        </mxCell>
        <mxCell id="CFoMmbY4XtNixEHZfKA1-143" value="" style="endArrow=none;html=1;rounded=0;exitX=1;exitY=0.5;exitDx=0;exitDy=0;entryX=0;entryY=0.5;entryDx=0;entryDy=0;" parent="1" source="CFoMmbY4XtNixEHZfKA1-124" target="CFoMmbY4XtNixEHZfKA1-129" edge="1">
          <mxGeometry width="50" height="50" relative="1" as="geometry">
            <mxPoint x="265.75" y="266.3584905660377" as="sourcePoint" />
            <mxPoint x="303.75" y="302.01886792452825" as="targetPoint" />
          </mxGeometry>
        </mxCell>
        <mxCell id="CFoMmbY4XtNixEHZfKA1-144" value="" style="endArrow=none;html=1;rounded=0;exitX=1;exitY=0.5;exitDx=0;exitDy=0;entryX=0;entryY=0.5;entryDx=0;entryDy=0;" parent="1" source="CFoMmbY4XtNixEHZfKA1-125" target="CFoMmbY4XtNixEHZfKA1-128" edge="1">
          <mxGeometry width="50" height="50" relative="1" as="geometry">
            <mxPoint x="261" y="291.3207547169811" as="sourcePoint" />
            <mxPoint x="299" y="412.566037735849" as="targetPoint" />
          </mxGeometry>
        </mxCell>
        <mxCell id="CFoMmbY4XtNixEHZfKA1-145" value="" style="endArrow=none;html=1;rounded=0;exitX=1;exitY=0.5;exitDx=0;exitDy=0;entryX=0;entryY=0.5;entryDx=0;entryDy=0;" parent="1" source="CFoMmbY4XtNixEHZfKA1-125" target="CFoMmbY4XtNixEHZfKA1-129" edge="1">
          <mxGeometry width="50" height="50" relative="1" as="geometry">
            <mxPoint x="227.75" y="302.01886792452825" as="sourcePoint" />
            <mxPoint x="265.75" y="284.18867924528297" as="targetPoint" />
          </mxGeometry>
        </mxCell>
        <mxCell id="CFoMmbY4XtNixEHZfKA1-146" value="" style="endArrow=none;html=1;rounded=0;exitX=1;exitY=0.5;exitDx=0;exitDy=0;entryX=0;entryY=0.5;entryDx=0;entryDy=0;" parent="1" source="CFoMmbY4XtNixEHZfKA1-126" target="CFoMmbY4XtNixEHZfKA1-128" edge="1">
          <mxGeometry width="50" height="50" relative="1" as="geometry">
            <mxPoint x="242" y="294.88679245283015" as="sourcePoint" />
            <mxPoint x="280" y="362.64150943396226" as="targetPoint" />
          </mxGeometry>
        </mxCell>
        <mxCell id="CFoMmbY4XtNixEHZfKA1-147" value="" style="endArrow=none;html=1;rounded=0;exitX=1;exitY=0.5;exitDx=0;exitDy=0;entryX=0;entryY=0.5;entryDx=0;entryDy=0;" parent="1" source="CFoMmbY4XtNixEHZfKA1-126" target="CFoMmbY4XtNixEHZfKA1-129" edge="1">
          <mxGeometry width="50" height="50" relative="1" as="geometry">
            <mxPoint x="246.75" y="387.60377358490564" as="sourcePoint" />
            <mxPoint x="284.75" y="316.2830188679245" as="targetPoint" />
          </mxGeometry>
        </mxCell>
        <mxCell id="CFoMmbY4XtNixEHZfKA1-148" value="" style="endArrow=none;html=1;rounded=0;exitX=1;exitY=0.5;exitDx=0;exitDy=0;entryX=0;entryY=0.5;entryDx=0;entryDy=0;" parent="1" source="CFoMmbY4XtNixEHZfKA1-127" target="CFoMmbY4XtNixEHZfKA1-128" edge="1">
          <mxGeometry width="50" height="50" relative="1" as="geometry">
            <mxPoint x="265.75" y="341.2452830188679" as="sourcePoint" />
            <mxPoint x="303.75" y="355.5094339622641" as="targetPoint" />
          </mxGeometry>
        </mxCell>
        <mxCell id="CFoMmbY4XtNixEHZfKA1-149" value="" style="endArrow=none;html=1;rounded=0;exitX=1;exitY=0.5;exitDx=0;exitDy=0;entryX=0;entryY=0.5;entryDx=0;entryDy=0;" parent="1" source="CFoMmbY4XtNixEHZfKA1-127" target="CFoMmbY4XtNixEHZfKA1-129" edge="1">
          <mxGeometry width="50" height="50" relative="1" as="geometry">
            <mxPoint x="208.75" y="512.4150943396226" as="sourcePoint" />
            <mxPoint x="246.75" y="387.60377358490564" as="targetPoint" />
          </mxGeometry>
        </mxCell>
        <mxCell id="CFoMmbY4XtNixEHZfKA1-152" value="" style="rounded=1;whiteSpace=wrap;html=1;fillColor=none;container=0;" parent="1" vertex="1">
          <mxGeometry x="80" y="211.01" width="190" height="198.99" as="geometry" />
        </mxCell>
        <mxCell id="CFoMmbY4XtNixEHZfKA1-196" value="" style="ellipse;whiteSpace=wrap;html=1;aspect=fixed;container=0;" parent="1" vertex="1">
          <mxGeometry x="500" y="606.8867924528302" width="16.02004716981132" height="16.02004716981132" as="geometry" />
        </mxCell>
        <mxCell id="CFoMmbY4XtNixEHZfKA1-197" value="" style="ellipse;whiteSpace=wrap;html=1;aspect=fixed;container=0;" parent="1" vertex="1">
          <mxGeometry x="500" y="664.2452830188679" width="16.02004716981132" height="16.02004716981132" as="geometry" />
        </mxCell>
        <mxCell id="CFoMmbY4XtNixEHZfKA1-198" value="" style="ellipse;whiteSpace=wrap;html=1;aspect=fixed;container=0;" parent="1" vertex="1">
          <mxGeometry x="500" y="721.6037735849056" width="16.02004716981132" height="16.02004716981132" as="geometry" />
        </mxCell>
        <mxCell id="CFoMmbY4XtNixEHZfKA1-199" value="" style="ellipse;whiteSpace=wrap;html=1;aspect=fixed;container=0;" parent="1" vertex="1">
          <mxGeometry x="577.1573604060914" y="580" width="16.02004716981132" height="16.02004716981132" as="geometry" />
        </mxCell>
        <mxCell id="CFoMmbY4XtNixEHZfKA1-200" value="" style="ellipse;whiteSpace=wrap;html=1;aspect=fixed;container=0;" parent="1" vertex="1">
          <mxGeometry x="577.1573604060914" y="633.7735849056604" width="16.02004716981132" height="16.02004716981132" as="geometry" />
        </mxCell>
        <mxCell id="CFoMmbY4XtNixEHZfKA1-201" value="" style="ellipse;whiteSpace=wrap;html=1;aspect=fixed;container=0;" parent="1" vertex="1">
          <mxGeometry x="577.1573604060914" y="687.5471698113207" width="16.02004716981132" height="16.02004716981132" as="geometry" />
        </mxCell>
        <mxCell id="CFoMmbY4XtNixEHZfKA1-202" value="" style="ellipse;whiteSpace=wrap;html=1;aspect=fixed;container=0;" parent="1" vertex="1">
          <mxGeometry x="577.1573604060914" y="741.3207547169811" width="16.02004716981132" height="16.02004716981132" as="geometry" />
        </mxCell>
        <mxCell id="CFoMmbY4XtNixEHZfKA1-203" value="" style="ellipse;whiteSpace=wrap;html=1;aspect=fixed;container=0;" parent="1" vertex="1">
          <mxGeometry x="651.4213197969543" y="664.2452830188679" width="16.02004716981132" height="16.02004716981132" as="geometry" />
        </mxCell>
        <mxCell id="CFoMmbY4XtNixEHZfKA1-204" value="" style="endArrow=none;html=1;rounded=0;exitX=1;exitY=0.5;exitDx=0;exitDy=0;entryX=0;entryY=0.5;entryDx=0;entryDy=0;" parent="1" source="CFoMmbY4XtNixEHZfKA1-196" target="CFoMmbY4XtNixEHZfKA1-199" edge="1">
          <mxGeometry width="50" height="50" relative="1" as="geometry">
            <mxPoint x="639.8477157360405" y="698.3018867924528" as="sourcePoint" />
            <mxPoint x="663.9593908629441" y="680.377358490566" as="targetPoint" />
          </mxGeometry>
        </mxCell>
        <mxCell id="CFoMmbY4XtNixEHZfKA1-205" value="" style="endArrow=none;html=1;rounded=0;exitX=0;exitY=0.5;exitDx=0;exitDy=0;entryX=1;entryY=0.5;entryDx=0;entryDy=0;" parent="1" source="CFoMmbY4XtNixEHZfKA1-200" target="CFoMmbY4XtNixEHZfKA1-196" edge="1">
          <mxGeometry width="50" height="50" relative="1" as="geometry">
            <mxPoint x="577.1573604060914" y="646.3207547169811" as="sourcePoint" />
            <mxPoint x="615.736040609137" y="619.433962264151" as="targetPoint" />
          </mxGeometry>
        </mxCell>
        <mxCell id="CFoMmbY4XtNixEHZfKA1-206" value="" style="endArrow=none;html=1;rounded=0;exitX=0;exitY=0.5;exitDx=0;exitDy=0;entryX=1;entryY=0.5;entryDx=0;entryDy=0;" parent="1" source="CFoMmbY4XtNixEHZfKA1-201" target="CFoMmbY4XtNixEHZfKA1-196" edge="1">
          <mxGeometry width="50" height="50" relative="1" as="geometry">
            <mxPoint x="644.6700507614214" y="689.3396226415094" as="sourcePoint" />
            <mxPoint x="606.0913705583756" y="662.4528301886793" as="targetPoint" />
          </mxGeometry>
        </mxCell>
        <mxCell id="CFoMmbY4XtNixEHZfKA1-207" value="" style="endArrow=none;html=1;rounded=0;exitX=0;exitY=0.5;exitDx=0;exitDy=0;entryX=1;entryY=0.5;entryDx=0;entryDy=0;" parent="1" source="CFoMmbY4XtNixEHZfKA1-202" target="CFoMmbY4XtNixEHZfKA1-196" edge="1">
          <mxGeometry width="50" height="50" relative="1" as="geometry">
            <mxPoint x="654.3147208121827" y="757.4528301886793" as="sourcePoint" />
            <mxPoint x="591.6243654822335" y="626.6037735849056" as="targetPoint" />
          </mxGeometry>
        </mxCell>
        <mxCell id="CFoMmbY4XtNixEHZfKA1-208" value="" style="endArrow=none;html=1;rounded=0;exitX=0;exitY=0.5;exitDx=0;exitDy=0;entryX=1;entryY=0.5;entryDx=0;entryDy=0;" parent="1" source="CFoMmbY4XtNixEHZfKA1-199" target="CFoMmbY4XtNixEHZfKA1-197" edge="1">
          <mxGeometry width="50" height="50" relative="1" as="geometry">
            <mxPoint x="644.6700507614214" y="804.0566037735848" as="sourcePoint" />
            <mxPoint x="606.0913705583756" y="669.622641509434" as="targetPoint" />
          </mxGeometry>
        </mxCell>
        <mxCell id="CFoMmbY4XtNixEHZfKA1-209" value="" style="endArrow=none;html=1;rounded=0;exitX=0;exitY=0.5;exitDx=0;exitDy=0;entryX=1;entryY=0.5;entryDx=0;entryDy=0;" parent="1" source="CFoMmbY4XtNixEHZfKA1-200" target="CFoMmbY4XtNixEHZfKA1-197" edge="1">
          <mxGeometry width="50" height="50" relative="1" as="geometry">
            <mxPoint x="591.6243654822335" y="662.4528301886793" as="sourcePoint" />
            <mxPoint x="553.0456852791879" y="746.6981132075472" as="targetPoint" />
          </mxGeometry>
        </mxCell>
        <mxCell id="CFoMmbY4XtNixEHZfKA1-210" value="" style="endArrow=none;html=1;rounded=0;exitX=0;exitY=0.5;exitDx=0;exitDy=0;entryX=1;entryY=0.5;entryDx=0;entryDy=0;" parent="1" source="CFoMmbY4XtNixEHZfKA1-201" target="CFoMmbY4XtNixEHZfKA1-197" edge="1">
          <mxGeometry width="50" height="50" relative="1" as="geometry">
            <mxPoint x="601.269035532995" y="676.7924528301887" as="sourcePoint" />
            <mxPoint x="562.6903553299493" y="707.2641509433962" as="targetPoint" />
          </mxGeometry>
        </mxCell>
        <mxCell id="CFoMmbY4XtNixEHZfKA1-211" value="" style="endArrow=none;html=1;rounded=0;exitX=0;exitY=0.5;exitDx=0;exitDy=0;entryX=1;entryY=0.5;entryDx=0;entryDy=0;" parent="1" source="CFoMmbY4XtNixEHZfKA1-202" target="CFoMmbY4XtNixEHZfKA1-197" edge="1">
          <mxGeometry width="50" height="50" relative="1" as="geometry">
            <mxPoint x="678.4263959390862" y="689.3396226415094" as="sourcePoint" />
            <mxPoint x="639.8477157360405" y="666.0377358490566" as="targetPoint" />
          </mxGeometry>
        </mxCell>
        <mxCell id="CFoMmbY4XtNixEHZfKA1-212" value="" style="endArrow=none;html=1;rounded=0;exitX=0;exitY=0.5;exitDx=0;exitDy=0;entryX=1;entryY=0.5;entryDx=0;entryDy=0;" parent="1" source="CFoMmbY4XtNixEHZfKA1-199" target="CFoMmbY4XtNixEHZfKA1-198" edge="1">
          <mxGeometry width="50" height="50" relative="1" as="geometry">
            <mxPoint x="678.4263959390862" y="789.7169811320755" as="sourcePoint" />
            <mxPoint x="639.8477157360405" y="712.6415094339623" as="targetPoint" />
          </mxGeometry>
        </mxCell>
        <mxCell id="CFoMmbY4XtNixEHZfKA1-213" value="" style="endArrow=none;html=1;rounded=0;exitX=0;exitY=0.5;exitDx=0;exitDy=0;entryX=1;entryY=0.5;entryDx=0;entryDy=0;" parent="1" source="CFoMmbY4XtNixEHZfKA1-200" target="CFoMmbY4XtNixEHZfKA1-198" edge="1">
          <mxGeometry width="50" height="50" relative="1" as="geometry">
            <mxPoint x="581.9796954314721" y="709.0566037735849" as="sourcePoint" />
            <mxPoint x="543.4010152284264" y="850.6603773584907" as="targetPoint" />
          </mxGeometry>
        </mxCell>
        <mxCell id="CFoMmbY4XtNixEHZfKA1-214" value="" style="endArrow=none;html=1;rounded=0;exitX=0;exitY=0.5;exitDx=0;exitDy=0;entryX=1;entryY=0.5;entryDx=0;entryDy=0;" parent="1" source="CFoMmbY4XtNixEHZfKA1-201" target="CFoMmbY4XtNixEHZfKA1-198" edge="1">
          <mxGeometry width="50" height="50" relative="1" as="geometry">
            <mxPoint x="625.3807106598985" y="709.0566037735849" as="sourcePoint" />
            <mxPoint x="586.8020304568528" y="796.8867924528302" as="targetPoint" />
          </mxGeometry>
        </mxCell>
        <mxCell id="CFoMmbY4XtNixEHZfKA1-215" value="" style="endArrow=none;html=1;rounded=0;exitX=0;exitY=0.5;exitDx=0;exitDy=0;entryX=1;entryY=0.5;entryDx=0;entryDy=0;" parent="1" source="CFoMmbY4XtNixEHZfKA1-202" target="CFoMmbY4XtNixEHZfKA1-198" edge="1">
          <mxGeometry width="50" height="50" relative="1" as="geometry">
            <mxPoint x="668.7817258883249" y="723.3962264150944" as="sourcePoint" />
            <mxPoint x="630.2030456852792" y="757.4528301886793" as="targetPoint" />
          </mxGeometry>
        </mxCell>
        <mxCell id="CFoMmbY4XtNixEHZfKA1-216" value="" style="endArrow=none;html=1;rounded=0;exitX=1;exitY=0.5;exitDx=0;exitDy=0;entryX=0;entryY=0.5;entryDx=0;entryDy=0;" parent="1" source="CFoMmbY4XtNixEHZfKA1-199" target="CFoMmbY4XtNixEHZfKA1-203" edge="1">
          <mxGeometry width="50" height="50" relative="1" as="geometry">
            <mxPoint x="697.7157360406092" y="651.6981132075472" as="sourcePoint" />
            <mxPoint x="659.1370558375634" y="793.3018867924528" as="targetPoint" />
          </mxGeometry>
        </mxCell>
        <mxCell id="CFoMmbY4XtNixEHZfKA1-217" value="" style="endArrow=none;html=1;rounded=0;exitX=1;exitY=0.5;exitDx=0;exitDy=0;entryX=0;entryY=0.5;entryDx=0;entryDy=0;" parent="1" source="CFoMmbY4XtNixEHZfKA1-200" target="CFoMmbY4XtNixEHZfKA1-203" edge="1">
          <mxGeometry width="50" height="50" relative="1" as="geometry">
            <mxPoint x="673.6040609137056" y="651.6981132075472" as="sourcePoint" />
            <mxPoint x="712.1827411167512" y="773.5849056603774" as="targetPoint" />
          </mxGeometry>
        </mxCell>
        <mxCell id="CFoMmbY4XtNixEHZfKA1-218" value="" style="endArrow=none;html=1;rounded=0;exitX=1;exitY=0.5;exitDx=0;exitDy=0;entryX=0;entryY=0.5;entryDx=0;entryDy=0;" parent="1" source="CFoMmbY4XtNixEHZfKA1-201" target="CFoMmbY4XtNixEHZfKA1-203" edge="1">
          <mxGeometry width="50" height="50" relative="1" as="geometry">
            <mxPoint x="654.3147208121827" y="655.2830188679245" as="sourcePoint" />
            <mxPoint x="692.8934010152284" y="723.3962264150944" as="targetPoint" />
          </mxGeometry>
        </mxCell>
        <mxCell id="CFoMmbY4XtNixEHZfKA1-219" value="" style="endArrow=none;html=1;rounded=0;exitX=1;exitY=0.5;exitDx=0;exitDy=0;entryX=0;entryY=0.5;entryDx=0;entryDy=0;" parent="1" source="CFoMmbY4XtNixEHZfKA1-202" target="CFoMmbY4XtNixEHZfKA1-203" edge="1">
          <mxGeometry width="50" height="50" relative="1" as="geometry">
            <mxPoint x="678.4263959390862" y="701.8867924528302" as="sourcePoint" />
            <mxPoint x="717.005076142132" y="716.2264150943396" as="targetPoint" />
          </mxGeometry>
        </mxCell>
        <mxCell id="CFoMmbY4XtNixEHZfKA1-220" value="" style="rounded=1;whiteSpace=wrap;html=1;fillColor=none;container=0;" parent="1" vertex="1">
          <mxGeometry x="487.17" y="569.01" width="190" height="198.99" as="geometry" />
        </mxCell>
        <mxCell id="CFoMmbY4XtNixEHZfKA1-241" value="" style="ellipse;whiteSpace=wrap;html=1;aspect=fixed;container=0;" parent="1" vertex="1">
          <mxGeometry x="510" y="246.88679245283018" width="16.02004716981132" height="16.02004716981132" as="geometry" />
        </mxCell>
        <mxCell id="CFoMmbY4XtNixEHZfKA1-242" value="" style="ellipse;whiteSpace=wrap;html=1;aspect=fixed;container=0;" parent="1" vertex="1">
          <mxGeometry x="510" y="304.24528301886795" width="16.02004716981132" height="16.02004716981132" as="geometry" />
        </mxCell>
        <mxCell id="CFoMmbY4XtNixEHZfKA1-243" value="" style="ellipse;whiteSpace=wrap;html=1;aspect=fixed;container=0;" parent="1" vertex="1">
          <mxGeometry x="510" y="361.60377358490564" width="16.02004716981132" height="16.02004716981132" as="geometry" />
        </mxCell>
        <mxCell id="CFoMmbY4XtNixEHZfKA1-244" value="" style="ellipse;whiteSpace=wrap;html=1;aspect=fixed;container=0;" parent="1" vertex="1">
          <mxGeometry x="587.1573604060914" y="220" width="16.02004716981132" height="16.02004716981132" as="geometry" />
        </mxCell>
        <mxCell id="CFoMmbY4XtNixEHZfKA1-245" value="" style="ellipse;whiteSpace=wrap;html=1;aspect=fixed;container=0;" parent="1" vertex="1">
          <mxGeometry x="587.1573604060914" y="273.77358490566036" width="16.02004716981132" height="16.02004716981132" as="geometry" />
        </mxCell>
        <mxCell id="CFoMmbY4XtNixEHZfKA1-246" value="" style="ellipse;whiteSpace=wrap;html=1;aspect=fixed;container=0;" parent="1" vertex="1">
          <mxGeometry x="587.1573604060914" y="327.5471698113207" width="16.02004716981132" height="16.02004716981132" as="geometry" />
        </mxCell>
        <mxCell id="CFoMmbY4XtNixEHZfKA1-247" value="" style="ellipse;whiteSpace=wrap;html=1;aspect=fixed;container=0;" parent="1" vertex="1">
          <mxGeometry x="587.1573604060914" y="381.3207547169811" width="16.02004716981132" height="16.02004716981132" as="geometry" />
        </mxCell>
        <mxCell id="CFoMmbY4XtNixEHZfKA1-248" value="" style="ellipse;whiteSpace=wrap;html=1;aspect=fixed;container=0;" parent="1" vertex="1">
          <mxGeometry x="661.4213197969543" y="304.24528301886795" width="16.02004716981132" height="16.02004716981132" as="geometry" />
        </mxCell>
        <mxCell id="CFoMmbY4XtNixEHZfKA1-249" value="" style="endArrow=none;html=1;rounded=0;exitX=1;exitY=0.5;exitDx=0;exitDy=0;entryX=0;entryY=0.5;entryDx=0;entryDy=0;" parent="1" source="CFoMmbY4XtNixEHZfKA1-241" target="CFoMmbY4XtNixEHZfKA1-244" edge="1">
          <mxGeometry width="50" height="50" relative="1" as="geometry">
            <mxPoint x="649.8477157360405" y="338.3018867924528" as="sourcePoint" />
            <mxPoint x="673.9593908629441" y="320.37735849056605" as="targetPoint" />
          </mxGeometry>
        </mxCell>
        <mxCell id="CFoMmbY4XtNixEHZfKA1-250" value="" style="endArrow=none;html=1;rounded=0;exitX=0;exitY=0.5;exitDx=0;exitDy=0;entryX=1;entryY=0.5;entryDx=0;entryDy=0;" parent="1" source="CFoMmbY4XtNixEHZfKA1-245" target="CFoMmbY4XtNixEHZfKA1-241" edge="1">
          <mxGeometry width="50" height="50" relative="1" as="geometry">
            <mxPoint x="587.1573604060914" y="286.3207547169811" as="sourcePoint" />
            <mxPoint x="625.736040609137" y="259.4339622641509" as="targetPoint" />
          </mxGeometry>
        </mxCell>
        <mxCell id="CFoMmbY4XtNixEHZfKA1-251" value="" style="endArrow=none;html=1;rounded=0;exitX=0;exitY=0.5;exitDx=0;exitDy=0;entryX=1;entryY=0.5;entryDx=0;entryDy=0;" parent="1" source="CFoMmbY4XtNixEHZfKA1-246" target="CFoMmbY4XtNixEHZfKA1-241" edge="1">
          <mxGeometry width="50" height="50" relative="1" as="geometry">
            <mxPoint x="654.6700507614214" y="329.33962264150944" as="sourcePoint" />
            <mxPoint x="616.0913705583756" y="302.4528301886793" as="targetPoint" />
          </mxGeometry>
        </mxCell>
        <mxCell id="CFoMmbY4XtNixEHZfKA1-252" value="" style="endArrow=none;html=1;rounded=0;exitX=0;exitY=0.5;exitDx=0;exitDy=0;entryX=1;entryY=0.5;entryDx=0;entryDy=0;" parent="1" source="CFoMmbY4XtNixEHZfKA1-247" target="CFoMmbY4XtNixEHZfKA1-241" edge="1">
          <mxGeometry width="50" height="50" relative="1" as="geometry">
            <mxPoint x="664.3147208121827" y="397.4528301886793" as="sourcePoint" />
            <mxPoint x="601.6243654822335" y="266.60377358490564" as="targetPoint" />
          </mxGeometry>
        </mxCell>
        <mxCell id="CFoMmbY4XtNixEHZfKA1-253" value="" style="endArrow=none;html=1;rounded=0;exitX=0;exitY=0.5;exitDx=0;exitDy=0;entryX=1;entryY=0.5;entryDx=0;entryDy=0;" parent="1" source="CFoMmbY4XtNixEHZfKA1-244" target="CFoMmbY4XtNixEHZfKA1-242" edge="1">
          <mxGeometry width="50" height="50" relative="1" as="geometry">
            <mxPoint x="654.6700507614214" y="444.05660377358487" as="sourcePoint" />
            <mxPoint x="616.0913705583756" y="309.62264150943395" as="targetPoint" />
          </mxGeometry>
        </mxCell>
        <mxCell id="CFoMmbY4XtNixEHZfKA1-254" value="" style="endArrow=none;html=1;rounded=0;exitX=0;exitY=0.5;exitDx=0;exitDy=0;entryX=1;entryY=0.5;entryDx=0;entryDy=0;" parent="1" source="CFoMmbY4XtNixEHZfKA1-245" target="CFoMmbY4XtNixEHZfKA1-242" edge="1">
          <mxGeometry width="50" height="50" relative="1" as="geometry">
            <mxPoint x="601.6243654822335" y="302.4528301886793" as="sourcePoint" />
            <mxPoint x="563.0456852791879" y="386.6981132075472" as="targetPoint" />
          </mxGeometry>
        </mxCell>
        <mxCell id="CFoMmbY4XtNixEHZfKA1-255" value="" style="endArrow=none;html=1;rounded=0;exitX=0;exitY=0.5;exitDx=0;exitDy=0;entryX=1;entryY=0.5;entryDx=0;entryDy=0;" parent="1" source="CFoMmbY4XtNixEHZfKA1-246" target="CFoMmbY4XtNixEHZfKA1-242" edge="1">
          <mxGeometry width="50" height="50" relative="1" as="geometry">
            <mxPoint x="611.269035532995" y="316.7924528301887" as="sourcePoint" />
            <mxPoint x="572.6903553299493" y="347.26415094339626" as="targetPoint" />
          </mxGeometry>
        </mxCell>
        <mxCell id="CFoMmbY4XtNixEHZfKA1-256" value="" style="endArrow=none;html=1;rounded=0;exitX=0;exitY=0.5;exitDx=0;exitDy=0;entryX=1;entryY=0.5;entryDx=0;entryDy=0;" parent="1" source="CFoMmbY4XtNixEHZfKA1-247" target="CFoMmbY4XtNixEHZfKA1-242" edge="1">
          <mxGeometry width="50" height="50" relative="1" as="geometry">
            <mxPoint x="688.4263959390862" y="329.33962264150944" as="sourcePoint" />
            <mxPoint x="649.8477157360405" y="306.0377358490566" as="targetPoint" />
          </mxGeometry>
        </mxCell>
        <mxCell id="CFoMmbY4XtNixEHZfKA1-257" value="" style="endArrow=none;html=1;rounded=0;exitX=0;exitY=0.5;exitDx=0;exitDy=0;entryX=1;entryY=0.5;entryDx=0;entryDy=0;" parent="1" source="CFoMmbY4XtNixEHZfKA1-244" target="CFoMmbY4XtNixEHZfKA1-243" edge="1">
          <mxGeometry width="50" height="50" relative="1" as="geometry">
            <mxPoint x="688.4263959390862" y="429.7169811320755" as="sourcePoint" />
            <mxPoint x="649.8477157360405" y="352.64150943396226" as="targetPoint" />
          </mxGeometry>
        </mxCell>
        <mxCell id="CFoMmbY4XtNixEHZfKA1-258" value="" style="endArrow=none;html=1;rounded=0;exitX=0;exitY=0.5;exitDx=0;exitDy=0;entryX=1;entryY=0.5;entryDx=0;entryDy=0;" parent="1" source="CFoMmbY4XtNixEHZfKA1-245" target="CFoMmbY4XtNixEHZfKA1-243" edge="1">
          <mxGeometry width="50" height="50" relative="1" as="geometry">
            <mxPoint x="591.9796954314721" y="349.0566037735849" as="sourcePoint" />
            <mxPoint x="553.4010152284264" y="490.6603773584906" as="targetPoint" />
          </mxGeometry>
        </mxCell>
        <mxCell id="CFoMmbY4XtNixEHZfKA1-259" value="" style="endArrow=none;html=1;rounded=0;exitX=0;exitY=0.5;exitDx=0;exitDy=0;entryX=1;entryY=0.5;entryDx=0;entryDy=0;" parent="1" source="CFoMmbY4XtNixEHZfKA1-246" target="CFoMmbY4XtNixEHZfKA1-243" edge="1">
          <mxGeometry width="50" height="50" relative="1" as="geometry">
            <mxPoint x="635.3807106598985" y="349.0566037735849" as="sourcePoint" />
            <mxPoint x="596.8020304568528" y="436.88679245283015" as="targetPoint" />
          </mxGeometry>
        </mxCell>
        <mxCell id="CFoMmbY4XtNixEHZfKA1-260" value="" style="endArrow=none;html=1;rounded=0;exitX=0;exitY=0.5;exitDx=0;exitDy=0;entryX=1;entryY=0.5;entryDx=0;entryDy=0;" parent="1" source="CFoMmbY4XtNixEHZfKA1-247" target="CFoMmbY4XtNixEHZfKA1-243" edge="1">
          <mxGeometry width="50" height="50" relative="1" as="geometry">
            <mxPoint x="678.7817258883249" y="363.39622641509436" as="sourcePoint" />
            <mxPoint x="640.2030456852792" y="397.4528301886793" as="targetPoint" />
          </mxGeometry>
        </mxCell>
        <mxCell id="CFoMmbY4XtNixEHZfKA1-261" value="" style="endArrow=none;html=1;rounded=0;exitX=1;exitY=0.5;exitDx=0;exitDy=0;entryX=0;entryY=0.5;entryDx=0;entryDy=0;" parent="1" source="CFoMmbY4XtNixEHZfKA1-244" target="CFoMmbY4XtNixEHZfKA1-248" edge="1">
          <mxGeometry width="50" height="50" relative="1" as="geometry">
            <mxPoint x="707.7157360406092" y="291.6981132075472" as="sourcePoint" />
            <mxPoint x="669.1370558375634" y="433.3018867924528" as="targetPoint" />
          </mxGeometry>
        </mxCell>
        <mxCell id="CFoMmbY4XtNixEHZfKA1-262" value="" style="endArrow=none;html=1;rounded=0;exitX=1;exitY=0.5;exitDx=0;exitDy=0;entryX=0;entryY=0.5;entryDx=0;entryDy=0;" parent="1" source="CFoMmbY4XtNixEHZfKA1-245" target="CFoMmbY4XtNixEHZfKA1-248" edge="1">
          <mxGeometry width="50" height="50" relative="1" as="geometry">
            <mxPoint x="683.6040609137056" y="291.6981132075472" as="sourcePoint" />
            <mxPoint x="722.1827411167512" y="413.5849056603774" as="targetPoint" />
          </mxGeometry>
        </mxCell>
        <mxCell id="CFoMmbY4XtNixEHZfKA1-263" value="" style="endArrow=none;html=1;rounded=0;exitX=1;exitY=0.5;exitDx=0;exitDy=0;entryX=0;entryY=0.5;entryDx=0;entryDy=0;" parent="1" source="CFoMmbY4XtNixEHZfKA1-246" target="CFoMmbY4XtNixEHZfKA1-248" edge="1">
          <mxGeometry width="50" height="50" relative="1" as="geometry">
            <mxPoint x="664.3147208121827" y="295.2830188679245" as="sourcePoint" />
            <mxPoint x="702.8934010152284" y="363.39622641509436" as="targetPoint" />
          </mxGeometry>
        </mxCell>
        <mxCell id="CFoMmbY4XtNixEHZfKA1-264" value="" style="endArrow=none;html=1;rounded=0;exitX=1;exitY=0.5;exitDx=0;exitDy=0;entryX=0;entryY=0.5;entryDx=0;entryDy=0;" parent="1" source="CFoMmbY4XtNixEHZfKA1-247" target="CFoMmbY4XtNixEHZfKA1-248" edge="1">
          <mxGeometry width="50" height="50" relative="1" as="geometry">
            <mxPoint x="688.4263959390862" y="341.88679245283015" as="sourcePoint" />
            <mxPoint x="727.005076142132" y="356.2264150943396" as="targetPoint" />
          </mxGeometry>
        </mxCell>
        <mxCell id="CFoMmbY4XtNixEHZfKA1-265" value="" style="rounded=1;whiteSpace=wrap;html=1;fillColor=none;container=0;" parent="1" vertex="1">
          <mxGeometry x="497.17" y="209.01" width="190" height="198.99" as="geometry" />
        </mxCell>
        <mxCell id="p9-uraiTvWrt8Vwzkyko-1" value="" style="endArrow=blockThin;html=1;rounded=0;endFill=1;movable=1;resizable=1;rotatable=1;deletable=1;editable=1;locked=0;connectable=1;entryX=0.5;entryY=1;entryDx=0;entryDy=0;exitX=1;exitY=0.5;exitDx=0;exitDy=0;fillColor=#f8cecc;strokeColor=#b85450;" edge="1" parent="1" source="CFoMmbY4XtNixEHZfKA1-222" target="CFoMmbY4XtNixEHZfKA1-265">
          <mxGeometry width="50" height="50" relative="1" as="geometry">
            <mxPoint x="1245" y="1081" as="sourcePoint" />
            <mxPoint x="700" y="820" as="targetPoint" />
            <Array as="points">
              <mxPoint x="720" y="670" />
              <mxPoint x="740" y="670" />
              <mxPoint x="740" y="490" />
              <mxPoint x="592" y="490" />
            </Array>
          </mxGeometry>
        </mxCell>
        <mxCell id="CFoMmbY4XtNixEHZfKA1-222" value="&lt;span&gt;value&lt;/span&gt;" style="rounded=1;whiteSpace=wrap;html=1;align=left;textDirection=vertical-rl;fontSize=30;container=0;" parent="1" vertex="1">
          <mxGeometry x="690" y="628" width="30" height="85" as="geometry" />
        </mxCell>
        <mxCell id="p9-uraiTvWrt8Vwzkyko-2" value="&lt;font style=&quot;color: rgb(255, 51, 51);&quot;&gt;Cost value&lt;/font&gt;" style="text;html=1;align=center;verticalAlign=middle;whiteSpace=wrap;rounded=0;fontSize=30;" vertex="1" parent="1">
          <mxGeometry x="603.1800000000001" y="448" width="160" height="30" as="geometry" />
        </mxCell>
      </root>
    </mxGraphModel>
  </diagram>
</mxfile>
